<?xml version="1.0" standalone="no"?>
<!DOCTYPE svg PUBLIC "-//W3C//DTD SVG 20010904//EN"
 "http://www.w3.org/TR/2001/REC-SVG-20010904/DTD/svg10.dtd">
<svg version="1.0" xmlns="http://www.w3.org/2000/svg"
 width="1000.000000pt" height="1000.000000pt" viewBox="0 0 1000.000000 1000.000000"
 preserveAspectRatio="xMidYMid meet">
<metadata>
Created by potrace 1.14, written by Peter Selinger 2001-2017
</metadata>
<g transform="translate(0.000000,1000.000000) scale(0.100000,-0.100000)"
fill="#000000" stroke="none">
<path d="M3505 7809 c-101 -15 -235 -58 -341 -108 -298 -142 -506 -364 -569
-606 -20 -78 -20 -249 1 -328 43 -169 178 -347 332 -441 125 -76 315 -117 442
-96 326 55 530 404 595 1018 18 165 13 262 -17 361 -26 84 -100 162 -176 184
-67 20 -192 28 -267 16z m262 -122 c18 -10 44 -33 60 -53 25 -34 28 -46 31
-140 6 -145 -31 -296 -140 -568 -127 -320 -244 -477 -418 -560 -58 -27 -75
-31 -155 -31 -82 0 -97 3 -157 33 -125 61 -229 198 -259 339 -26 127 2 306 68
438 87 170 269 344 469 447 208 107 405 144 501 95z"/>
<path d="M4457 7768 c-262 -310 -388 -613 -404 -968 -8 -174 14 -379 58 -542
l10 -38 69 0 c79 0 76 -4 56 85 -49 205 -62 489 -31 671 35 204 111 393 235
578 39 58 74 107 78 110 4 2 7 -71 8 -162 0 -181 10 -243 64 -405 78 -230 261
-527 494 -799 l67 -78 74 0 c41 0 75 4 75 8 0 4 -11 66 -25 137 -50 259 -55
419 -20 620 32 182 101 362 202 524 39 62 160 222 221 294 14 16 10 17 -64 17
l-79 -1 -70 -85 c-143 -174 -260 -378 -315 -546 -59 -184 -85 -455 -61 -643 7
-49 14 -112 18 -140 l6 -50 -72 90 c-359 448 -507 888 -423 1255 12 52 22 100
22 107 0 9 -20 13 -74 13 l-74 0 -45 -52z"/>
<path d="M6325 7690 c-372 -84 -719 -317 -841 -565 -144 -295 6 -619 371 -802
89 -45 209 -80 316 -92 312 -35 590 100 749 363 32 53 100 218 94 228 -9 14
-248 9 -265 -4 -9 -7 -34 -44 -56 -83 -168 -286 -448 -434 -698 -370 -186 48
-320 181 -356 353 -21 102 2 246 53 330 l20 32 670 0 669 0 -7 83 c-19 230
-122 425 -262 496 -105 54 -299 67 -457 31z m378 -128 c50 -23 92 -63 118
-114 25 -48 40 -157 32 -230 l-6 -58 -539 0 -539 0 21 30 c27 38 152 147 227
198 130 88 330 171 463 191 84 13 171 6 223 -17z"/>
<path d="M5094 6033 l-142 -4 58 -147 c32 -81 128 -302 215 -492 243 -532 288
-634 345 -785 30 -77 60 -146 69 -152 16 -14 137 -18 144 -5 11 17 -186 497
-283 692 -15 30 -31 65 -34 78 l-7 22 213 0 c322 0 421 22 508 110 124 123
101 313 -56 467 -77 75 -224 151 -354 183 -78 19 -393 43 -500 37 -19 -1 -99
-3 -176 -4z m458 -52 c150 -11 231 -34 319 -93 135 -91 224 -278 190 -404 -18
-66 -65 -128 -123 -160 l-53 -29 -220 -3 c-121 -1 -225 1 -231 5 -22 17 -256
551 -288 660 -7 22 -6 22 111 26 65 1 129 3 143 4 14 1 82 -2 152 -6z"/>
<path d="M2156 5993 c11 -67 122 -565 214 -963 49 -212 96 -423 105 -470 24
-130 15 -120 106 -120 61 0 79 3 79 14 0 30 -44 223 -105 465 -36 140 -65 263
-65 273 0 17 21 18 447 16 l448 -3 38 -100 c21 -55 80 -226 132 -380 l93 -280
76 -3 c61 -2 76 0 76 12 0 30 -158 474 -290 816 -75 195 -167 446 -204 558
l-68 202 -70 0 c-61 0 -69 -2 -64 -17 3 -10 23 -77 45 -149 37 -119 117 -347
185 -527 l26 -67 -448 2 -447 3 -33 123 c-19 68 -60 237 -91 375 l-57 252 -68
3 -67 3 7 -38z"/>
<path d="M3933 6015 c-108 -29 -208 -103 -260 -193 -57 -96 -80 -256 -58 -388
35 -202 152 -417 328 -601 120 -125 235 -211 382 -284 160 -79 247 -101 400
-103 178 -1 288 38 384 135 234 237 123 680 -268 1069 -192 191 -391 314 -582
360 -99 24 -248 26 -326 5z m451 -115 c132 -41 321 -196 423 -346 109 -160
172 -335 180 -504 9 -180 -30 -295 -137 -393 -73 -68 -145 -97 -255 -104 -139
-9 -260 36 -397 146 -207 166 -341 424 -364 699 -19 232 102 452 279 508 66
20 194 17 271 -6z"/>
<path d="M6840 5914 c-252 -54 -405 -251 -387 -499 20 -266 254 -609 555 -809
151 -101 277 -148 426 -162 317 -29 575 213 576 539 l0 58 -117 -3 -116 -3
-13 -65 c-19 -93 -83 -216 -146 -280 -102 -104 -255 -145 -394 -105 -180 51
-372 244 -453 455 -34 88 -66 224 -57 245 5 13 85 15 621 15 l616 0 -7 23
c-22 71 -130 224 -218 310 -236 228 -599 343 -886 281z m435 -119 c181 -38
337 -161 422 -333 31 -61 34 -75 22 -83 -20 -12 -996 -12 -1004 1 -8 13 21
125 47 178 31 65 119 154 188 191 57 31 161 58 225 60 17 0 62 -6 100 -14z"/>
<path d="M1631 4249 c-52 -5 -119 -16 -150 -25 -230 -66 -363 -265 -306 -459
13 -48 27 -69 74 -114 78 -76 170 -122 476 -236 308 -115 362 -142 436 -215
71 -70 87 -125 63 -217 -36 -144 -154 -229 -351 -256 -219 -29 -379 51 -484
243 -74 136 -68 131 -163 128 l-81 -3 -3 -38 c-2 -27 4 -51 24 -85 73 -127
192 -222 343 -276 82 -29 93 -30 246 -31 140 0 169 3 235 23 206 65 362 194
419 348 42 111 20 198 -70 277 -70 61 -174 111 -379 182 -338 118 -499 198
-561 280 -147 192 -10 387 282 402 125 7 237 -15 348 -68 107 -51 208 -149
261 -254 l35 -70 98 -3 c78 -2 97 0 97 11 0 8 -17 48 -37 88 -48 98 -160 210
-258 261 -172 88 -381 126 -594 107z"/>
<path d="M2450 4235 c-7 -8 -10 -22 -6 -30 5 -13 48 -15 316 -15 170 0 310 -3
310 -7 0 -5 5 -37 10 -73 6 -36 15 -133 20 -217 28 -418 -69 -842 -269 -1180
l-31 -53 75 0 75 0 41 63 c143 219 252 543 280 832 17 170 3 487 -26 613 l-5
22 295 0 295 0 0 30 0 30 -684 0 c-593 0 -685 -2 -696 -15z"/>
<path d="M3930 4226 c0 -12 10 -83 22 -157 31 -189 31 -495 -1 -649 -52 -246
-168 -503 -315 -696 -20 -26 -36 -51 -36 -55 0 -5 34 -9 75 -9 l75 0 40 51
c152 192 260 409 319 639 l27 105 129 -3 c205 -4 310 -30 399 -98 149 -113
139 -301 -27 -549 -22 -33 -56 -79 -75 -102 l-34 -43 87 0 87 0 35 38 c57 61
141 194 169 268 39 101 39 208 1 286 -35 71 -98 128 -191 173 -72 35 -72 39
-1 50 172 27 340 129 412 252 38 64 40 174 5 244 -31 64 -103 132 -183 174
-172 90 -269 105 -696 105 l-323 0 0 -24z m749 -41 c88 -21 154 -59 211 -122
143 -156 86 -377 -126 -490 -104 -55 -147 -62 -394 -65 l-225 -3 5 60 c14 173
-2 442 -36 608 l-6 27 254 0 c190 0 269 -4 317 -15z"/>
<path d="M8150 4238 c1 -41 12 -43 247 -48 l228 -5 8 -80 c12 -119 1 -668 -17
-840 -19 -176 -46 -326 -86 -484 -17 -63 -30 -116 -30 -117 0 -2 33 -4 74 -4
l74 0 16 68 c72 322 100 661 95 1145 l-4 317 203 0 202 0 0 30 0 30 -505 0
c-397 0 -505 -3 -505 -12z"/>
<path d="M5845 4136 c-87 -20 -141 -43 -216 -92 -196 -128 -329 -370 -401
-724 -30 -151 -32 -368 -5 -447 51 -147 159 -212 348 -213 244 0 589 128 821
306 111 86 248 242 248 284 0 6 -39 10 -105 10 l-105 0 -103 -103 c-151 -151
-332 -262 -535 -328 -455 -145 -558 65 -308 624 17 37 32 57 43 57 10 1 275 1
588 0 343 0 576 4 585 9 24 16 -2 140 -50 238 -83 169 -256 305 -462 363 -95
27 -262 35 -343 16z m405 -134 c135 -40 243 -155 274 -291 29 -125 89 -111
-474 -111 l-491 0 37 58 c99 155 204 257 329 318 108 53 209 61 325 26z"/>
<path d="M7354 4135 c-170 -37 -327 -172 -424 -365 -90 -180 -160 -474 -160
-675 0 -66 5 -139 10 -163 27 -116 100 -205 198 -243 71 -27 217 -36 320 -20
282 44 579 221 721 430 35 50 81 141 81 157 0 11 -197 3 -211 -8 -8 -7 -41
-48 -73 -90 -157 -210 -452 -370 -681 -371 -63 0 -89 4 -122 21 -135 70 -136
264 -5 602 l38 95 547 3 547 2 0 33 c0 52 -38 175 -78 252 -54 105 -181 228
-292 282 -138 68 -281 87 -416 58z m414 -155 c71 -37 129 -98 161 -166 23 -47
51 -154 51 -191 l0 -23 -446 0 -446 0 23 38 c89 148 179 255 259 308 21 14 65
37 97 50 50 21 70 24 148 21 80 -3 97 -7 153 -37z"/>
</g>
</svg>
