<svg width="17" height="8" viewBox="0 0 17 8" fill="none" xmlns="http://www.w3.org/2000/svg">
<path d="M16 4.5C16.2761 4.5 16.5 4.27614 16.5 4C16.5 3.72386 16.2761 3.5 16 3.5L16 4.5ZM0.646446 3.64645C0.451184 3.84171 0.451184 4.15829 0.646446 4.35355L3.82843 7.53553C4.02369 7.7308 4.34027 7.7308 4.53553 7.53553C4.7308 7.34027 4.7308 7.02369 4.53553 6.82843L1.70711 4L4.53553 1.17157C4.7308 0.97631 4.7308 0.659727 4.53553 0.464465C4.34027 0.269203 4.02369 0.269203 3.82843 0.464465L0.646446 3.64645ZM16 3.5L1 3.5L1 4.5L16 4.5L16 3.5Z" fill="white"/>
</svg>
