<svg width="579" height="372" viewBox="0 0 579 372" fill="none" xmlns="http://www.w3.org/2000/svg">
<g style="mix-blend-mode:color-burn" clip-path="url(#clip0_559_151)">
<path d="M253.634 0C252.579 4.87235 251.345 9.72678 250.522 14.6349C248.948 23.9497 250.003 33.1929 252.15 42.3106C256.389 60.3132 265.19 76.0946 275.905 90.9266C279.286 95.6019 282.953 100.08 286.495 104.648C286.835 105.096 287.246 105.472 287.98 105.687C287.622 103.484 287.282 101.298 286.924 99.0949C285.493 89.9593 284.831 80.8057 285.457 71.5267C286.191 60.564 288.409 49.9774 292.523 39.8207C298.14 25.9739 306.261 13.7035 316.261 2.65113C317.012 1.82713 317.656 0.895652 318.336 0.017913C321.913 0.017913 325.491 0.017913 329.068 0.017913C323.934 6.64574 318.389 13.0049 313.738 19.973C305.188 32.7988 299.607 46.9501 297.299 62.2657C295.689 72.8702 295.546 83.5285 297.156 94.133C298.158 100.725 299.589 107.227 300.823 113.784C300.895 114.124 300.895 114.464 300.948 114.93C297.407 114.93 293.972 114.984 290.555 114.876C290.037 114.876 289.464 114.214 289.053 113.748C278.642 101.764 268.875 89.3144 260.825 75.5751C253.187 62.5523 247.553 48.7951 245.549 33.7482C244.547 26.2784 244.708 18.7729 245.853 11.3031C245.943 10.7478 245.978 10.1925 245.782 9.54765C233.815 24.2184 225.479 40.573 222.098 59.3101C218.735 77.9934 220.685 96.3721 225.371 114.823C224.799 114.93 224.316 115.091 223.833 115.091C221.454 115.109 219.057 115.055 216.678 115.127C215.605 115.163 215.068 114.787 214.8 113.73C212.85 105.741 211.204 97.6798 210.703 89.4577C210.417 84.6391 210.059 79.8026 210.22 75.0019C210.811 56.5335 215.855 39.3549 225.389 23.484C230.452 15.029 236.426 7.32643 242.92 0C246.497 0 250.075 0 253.634 0Z" fill="#B35C28"/>
<path d="M579 261.638C578.535 261.584 578.052 261.495 577.587 261.495C568.822 261.495 560.074 261.495 551.309 261.495C549.342 261.495 549.216 261.763 549.377 263.698C549.628 266.725 549.878 269.752 549.932 272.78C550.129 282.381 550.504 291.983 550.272 301.566C550.039 311.257 549.288 320.948 548.555 330.621C547.553 343.912 545.335 357.025 542.437 370.012C542.294 370.639 542.115 371.266 541.972 371.893H531.382C532.169 368.901 532.92 366.107 533.654 363.312C536.248 353.227 538.376 343.035 539.378 332.663C540.308 323.026 541.131 313.353 541.507 303.698C541.847 294.544 541.614 285.355 541.507 276.183C541.453 272.027 541.042 267.872 540.845 263.716C540.773 262.121 540.165 261.477 538.448 261.495C528.86 261.566 519.272 261.53 509.684 261.53C507.776 261.53 506.72 260.599 506.518 258.736C506.464 258.324 506.375 257.93 506.285 257.428C506.697 257.375 507.036 257.303 507.376 257.303C530.667 257.303 553.957 257.303 577.247 257.303C577.837 257.303 578.428 257.357 579.036 257.374V261.674L579 261.638Z" fill="#B35C28"/>
<path d="M426.487 53.2375C425.503 53.2375 424.859 53.2375 424.215 53.2375C393.519 53.2375 362.841 53.2375 332.145 53.2017C330.41 53.2017 329.516 53.7749 328.675 55.2438C321.251 68.2307 322.718 84.442 332.324 94.6166C343.075 106.009 359.836 109.287 374.2 103.018C387.938 97.017 397.097 86.4662 403.822 73.4792C404.466 72.2253 405.128 71.7775 406.506 71.7954C412.284 71.885 418.043 71.8312 424.358 71.8312C422.676 76.0587 421.353 80.125 419.492 83.9225C415.521 91.9834 410.191 99.0232 402.857 104.397C394.467 110.541 385.129 114.034 374.754 114.733C357.653 115.879 342.431 110.72 328.8 100.653C320.929 94.8495 314.829 87.4693 311.645 78.065C308.408 68.4994 309.266 59.1488 313.792 50.1386C318.514 40.7521 325.759 33.5869 334.166 27.5144C346.795 18.3967 360.694 12.1808 375.989 9.17145C384.056 7.57719 392.177 7.09353 400.245 9.06397C409.171 11.2494 415.503 16.8203 419.922 24.72C423.392 30.9358 425.217 37.6711 425.878 44.7288C426.129 47.4516 426.254 50.1744 426.451 53.2017L426.487 53.2375ZM333.648 47.8457C334.828 47.9353 335.347 48.0069 335.866 48.0069C360.659 48.0069 385.451 48.0069 410.226 48.0427C411.657 48.0427 412.248 47.5591 412.391 46.1619C412.874 41.4507 413.035 36.7575 412.105 32.0822C410.173 22.4092 403.286 16.8382 393.465 16.6949C386.525 16.5874 379.906 18.0384 373.431 20.3134C359.228 25.2932 346.956 33.2466 336.635 44.2093C335.687 45.2125 334.864 46.3589 333.648 47.8457Z" fill="#B35C28"/>
<path d="M491.581 181.746C490.687 181.746 489.882 181.746 489.077 181.746C460.885 181.746 432.712 181.746 404.52 181.746C402.034 181.746 401.783 182.086 402.123 184.576C403.679 195.789 407.811 205.964 414.555 214.992C420.047 222.355 426.719 228.445 435.27 232.099C449.652 238.243 464.588 233.102 472.978 219.256C476.197 213.935 478.219 208.203 479.024 202.041C479.167 200.948 479.525 200.465 480.687 200.483C485.338 200.519 489.989 200.501 494.622 200.483C495.445 200.483 495.964 200.644 495.982 201.647C496.125 215.995 491.617 228.248 479.686 236.954C473.854 241.199 467.11 243.08 459.937 243.331C446.611 243.814 434.858 239.175 423.982 231.956C410.244 222.838 399.207 211.123 391.229 196.649C386.972 188.911 383.877 180.743 383.484 171.804C382.822 156.47 391.623 143.895 406.327 139.005C413.446 136.623 420.727 135.763 428.258 136.39C445.43 137.805 460.277 144.576 473.21 155.736C480.991 162.435 486.912 170.604 491.17 179.954C491.313 180.277 491.456 180.617 491.563 180.94C491.599 181.047 491.563 181.172 491.563 181.746H491.581ZM476.412 176.228C475.392 173.882 474.57 171.822 473.604 169.816C466.037 154.016 448.221 142.91 431.245 145.346C422.265 146.636 414.698 150.487 409.046 157.706C405.289 162.489 403.214 168.024 402.338 174.043C402.016 176.264 402.034 176.461 404.234 176.461C427.345 176.461 450.457 176.461 473.568 176.461C474.373 176.461 475.178 176.354 476.412 176.246V176.228Z" fill="#B35C28"/>
<path d="M397.454 328.901C395.2 333.397 392.625 337.105 389.512 340.401C378.099 352.511 364.111 360.5 348.62 366.16C342.18 368.507 335.597 370.37 328.818 371.283C322.808 372.09 316.761 372.34 310.733 371.068C301.235 369.08 296.136 362.864 294.205 353.747C292.398 345.202 293.221 336.658 294.652 328.149C296.208 318.959 298.462 309.967 301.968 301.297C306.655 289.761 313.327 279.676 323.666 272.439C330.499 267.657 338.209 265.31 346.545 264.898C357.027 264.378 366.919 266.528 376.096 271.526C387.026 277.491 395.773 285.641 399.959 297.715C401.211 301.315 401.515 305.256 402.141 309.071C402.195 309.394 401.533 310.057 401.086 310.218C400.495 310.415 399.798 310.272 399.136 310.272C372.089 310.272 345.042 310.29 317.996 310.218C316.135 310.218 315.277 310.845 314.543 312.475C310.626 321.091 306.994 329.815 304.866 339.094C303.793 343.751 303.166 348.462 304.24 353.227C305.528 358.977 309.427 362.273 315.295 363.008C321.233 363.742 326.94 362.614 332.557 360.983C343.2 357.902 353.128 353.191 362.269 346.886C368.977 342.264 375.023 336.89 379.996 330.406C380.872 329.277 381.766 328.865 383.126 328.883C387.759 328.937 392.392 328.901 397.436 328.901H397.454ZM318.89 304.557H389.834C389.888 304.02 389.977 303.608 389.941 303.214C389.852 302.032 389.78 300.849 389.601 299.667C387.848 287.486 380.997 279.3 369.585 275.216C360.033 271.794 350.784 273.532 342.18 278.583C332.896 284.047 326.385 292.215 320.822 301.243C320.214 302.247 319.641 303.268 318.872 304.557H318.89Z" fill="#B35C28"/>
<path d="M502.439 329.403C501.008 332.251 499.792 335.242 498.128 337.947C491.778 348.265 482.762 355.717 472.28 361.503C463.461 366.375 454.106 369.886 444.124 371.284C437.416 372.215 430.601 372.484 423.964 370.585C414.233 367.808 408.903 361.073 407.15 351.31C405.647 342.82 406.184 334.329 407.811 325.946C409.135 319.139 410.53 312.278 412.605 305.686C416.362 293.738 421.871 282.686 431.62 274.302C438.74 268.176 447.004 265.167 456.431 264.826C477.7 264.056 497.842 279.21 503.53 299.506C504.496 302.963 505.248 306.402 505.194 310.29C504.246 310.29 503.441 310.29 502.636 310.29C478.094 310.29 453.533 310.308 428.991 310.236C427.131 310.236 426.272 310.791 425.592 312.511C422.05 321.557 418.401 330.549 416.863 340.222C416.165 344.557 415.897 348.856 417.149 353.155C418.813 358.834 423.124 362.345 429.009 363.026C436.987 363.975 444.357 361.754 451.584 358.852C461.815 354.732 470.974 348.874 478.469 340.724C481.385 337.535 483.889 333.953 486.447 330.442C487.199 329.421 487.878 328.883 489.166 328.919C493.442 328.991 497.717 328.937 502.01 328.937C502.171 329.098 502.314 329.277 502.475 329.439L502.439 329.403ZM429.259 304.45C429.939 304.593 430.1 304.665 430.279 304.665C451.065 304.665 471.833 304.665 492.619 304.701C493.907 304.701 494.175 304.092 494.014 303.053C493.674 300.706 493.442 298.324 492.887 296.031C490.687 286.859 485.75 279.64 476.985 275.717C468.201 271.794 459.669 273.263 451.601 278.01C444.625 282.112 439.509 288.167 435.073 294.795C433.034 297.84 431.281 301.064 429.259 304.432V304.45Z" fill="#B35C28"/>
<path d="M295.135 210.317C295.224 218.951 292.988 226.475 287.282 232.762C282.237 238.315 275.798 241.342 268.517 242.596C254.207 245.05 240.88 241.719 228.287 235.055C213.44 227.191 201.258 216.246 191.76 202.382C184.694 192.064 179.667 180.868 178.38 168.329C177.253 157.294 179.292 147.012 187.163 138.611C192.529 132.879 199.434 130.12 207.108 129.314C222.152 127.738 235.424 132.825 247.839 140.707C265.315 151.813 278.857 166.609 288.391 184.988C292.523 192.995 295.26 201.45 295.135 210.335V210.317ZM278.231 202.686C278.231 201.253 278.374 199.802 278.213 198.405C277.068 188.284 273.973 178.754 268.982 169.905C262.203 157.886 253.241 147.98 241.059 141.226C234.369 137.518 227.196 135.727 219.611 136.784C210.184 138.11 203.262 143.358 198.808 151.688C193.853 160.985 193.244 170.998 195.105 181.101C198.432 199.086 206.911 214.222 221.293 225.74C230.273 232.941 240.362 237.097 252.168 235.61C258.625 234.804 264.314 232.243 268.911 227.585C275.708 220.707 278.302 212.18 278.266 202.704L278.231 202.686Z" fill="#B35C28"/>
<path d="M204.818 29.8611C203.548 50.1565 200.596 69.8429 192.064 88.3113C188.325 96.3901 183.227 103.43 175.786 108.535C168.595 113.461 160.563 115.611 151.923 114.805C132.085 112.942 117.9 102.552 108.688 85.1765C105.074 78.3516 103.733 70.8998 103.804 63.1077C103.947 49.0638 109.868 37.6174 119.26 27.6936C128.543 17.8593 139.723 10.8912 152.263 5.96507C161.601 2.27499 171.206 -0.0357938 181.277 0.483684C193.298 1.09273 201.562 6.43081 203.834 19.9731C204.389 23.3049 204.514 26.6905 204.818 29.879V29.8611ZM113.732 72.4045C113.965 82.6687 117.56 92.6283 126.343 100.313C130.905 104.29 136.182 106.798 142.246 107.353C151.136 108.177 158.595 104.738 165.107 99.0949C172.029 93.112 176.913 85.5169 180.741 77.3127C185.571 66.959 189.738 56.3186 193.101 45.3738C195.445 37.7607 197.234 30.0581 196.768 22.0152C196.518 17.6085 195.409 13.5065 191.635 10.6941C187.967 7.97133 183.692 7.63099 179.363 7.95342C173.872 8.36542 168.595 9.78055 163.443 11.751C148.149 17.6085 135.073 26.5472 125.127 39.6953C118.097 48.9922 113.822 59.3817 113.732 72.4045Z" fill="#B35C28"/>
<path d="M244.959 371.785C246.819 369.421 248.519 367.361 250.093 365.211C254.511 359.192 258.375 352.851 260.861 345.74C264.081 336.568 262.131 328.113 255.066 322.22C251.542 319.282 247.302 317.652 242.884 316.488C236.784 314.875 230.541 314.625 224.28 314.481C222.187 314.428 220.112 314.41 218.037 314.302C216.517 314.213 215.837 314.786 215.551 316.344C213.476 327.379 209.737 337.822 204.55 347.764C200.203 356.093 194.819 363.724 188.987 371.069C188.701 371.427 188.128 371.749 187.681 371.767C184.3 371.821 180.92 371.803 177.235 371.803C177.628 371.158 177.861 370.692 178.165 370.298C187.896 357.634 195.677 343.895 200.274 328.507C202.671 320.464 204.407 312.26 204.746 303.841C204.997 297.536 205.48 291.176 204.943 284.907C204.228 276.344 202.707 267.836 201.384 259.345C201.151 257.787 201.33 257.321 202.922 257.339C217.572 257.446 232.258 257.106 246.891 257.697C257.785 258.145 268.321 260.814 277.801 266.636C282.524 269.538 286.441 273.263 288.552 278.476C291.825 286.573 289.929 293.738 284.134 300.025C277.157 307.585 268.195 311.257 258.321 313.102C256.371 313.46 254.422 313.693 252.454 313.998C252.454 314.177 252.436 314.338 252.418 314.517C253.169 314.804 253.903 315.108 254.654 315.395C259.323 317.168 263.634 319.479 267.247 322.99C273.454 329.027 275.064 336.371 273.365 344.629C271.755 352.475 267.516 359.013 262.775 365.265C261.308 367.217 259.734 369.08 258.124 370.925C257.749 371.355 257.069 371.731 256.514 371.749C252.758 371.821 249.019 371.785 244.941 371.785H244.959ZM232.902 260.868C227.429 260.868 221.937 260.85 216.463 260.868C214.12 260.868 214.102 260.868 214.549 263.16C217.536 278.225 218.789 293.362 216.875 308.677C216.535 311.329 216.57 311.364 219.307 311.347C226.874 311.311 234.441 311.203 242.007 311.185C246.193 311.185 250.325 310.863 254.332 309.537C261.147 307.298 267.158 303.877 271.719 298.18C278.606 289.582 278.463 279.121 271.183 270.953C265.298 264.343 257.606 261.423 249.001 260.939C243.653 260.635 238.287 260.886 232.92 260.886L232.902 260.868Z" fill="#B35C28"/>
<path d="M99.7795 290.908C94.9676 290.908 90.5671 290.926 86.1667 290.872C85.7552 290.872 85.1649 290.317 84.9861 289.887C78.3854 273.532 65.8459 265.077 48.7986 262.659C42.3768 261.745 35.9907 261.817 29.712 263.787C25.4547 265.131 21.6087 267.155 18.371 270.308C13.3802 275.144 13.1119 281.414 15.652 287.11C18.371 293.183 23.3797 297.159 29.1396 299.9C36.42 303.357 43.9151 306.456 51.4997 309.251C60.712 312.654 70.2642 315.162 78.9578 319.837C82.0703 321.503 85.0934 323.563 87.705 325.946C93.4829 331.23 94.4488 337.84 91.5868 344.898C87.5262 354.821 80.0132 361.485 70.6399 366.214C63.2521 369.94 55.3814 371.695 47.0992 371.857C40.4806 372 33.9157 371.695 27.5476 369.635C15.5447 365.766 6.38602 358.368 0.608189 347.119C-0.232549 345.471 0.125212 343.196 0.0178833 341.207C0.0178833 340.993 0.679741 340.563 1.0375 340.563C4.66877 340.509 8.30005 340.491 11.9313 340.581C12.4322 340.581 13.094 341.261 13.3981 341.781C16.0277 346.295 18.1921 351.131 21.2331 355.359C27.2077 363.617 35.6687 367.486 45.8113 367.683C52.2331 367.808 58.5475 367.02 64.4864 364.459C72.3929 361.055 77.5983 355.323 79.0115 346.581C79.7985 341.655 78.4569 337.374 75.0045 333.774C70.783 329.385 65.5775 326.483 60.0501 324.226C52.2867 321.073 44.416 318.207 36.5453 315.305C28.1737 312.206 19.6947 309.304 12.2533 304.199C7.85284 301.19 3.97114 297.571 2.46854 292.269C0.23254 284.316 2.236 277.061 7.10155 270.594C12.468 263.465 20.0883 259.918 28.5314 258.467C44.9169 255.673 60.9445 257.07 76.1852 264.199C86.0951 268.839 93.5187 276.058 98.0622 286.107C98.7241 287.558 99.1355 289.116 99.7795 290.926V290.908Z" fill="#B35C28"/>
<path d="M160.42 183.895C153.336 165.678 146.861 147.675 141.548 128.902C144.804 128.902 147.809 128.831 150.814 128.974C151.225 128.992 151.744 130.049 151.959 130.693C155.25 140.492 158.238 150.416 161.833 160.107C167.36 175.01 173.496 189.681 179.023 204.585C183.531 216.73 187.538 229.072 191.76 241.324C191.957 241.88 192.046 242.453 192.261 243.313C188.611 243.313 185.123 243.349 181.653 243.241C181.277 243.241 180.759 242.399 180.598 241.862C177.95 233.711 175.517 225.471 172.727 217.375C169.525 208.096 166.019 198.924 162.692 189.699C162.262 188.517 161.618 188.176 160.456 188.176C139.849 188.194 119.224 188.194 98.6168 188.159C96.8995 188.159 96.7743 188.803 97.1499 190.219C100.03 201.378 102.946 212.538 105.7 223.734C107.257 230.129 108.509 236.595 109.958 243.313C105.987 243.313 102.32 243.349 98.6525 243.259C98.3663 243.259 97.9191 242.471 97.8297 241.987C96.667 236.148 95.6831 230.272 94.3773 224.486C91.2827 210.801 87.9913 197.169 84.8609 183.501C81.6052 169.242 78.4391 154.948 75.2729 140.653C74.4321 136.838 73.7524 132.986 72.9474 128.902C75.9884 128.902 78.7789 128.848 81.5516 128.974C81.9451 128.992 82.5175 129.869 82.6427 130.425C84.9503 140.42 87.1326 150.452 89.4939 160.447C91.2111 167.684 93.1967 174.849 94.9855 182.05C95.3432 183.519 95.9693 184.074 97.5256 184.074C117.721 184.021 137.917 184.039 158.112 184.039C158.756 184.039 159.382 183.967 160.438 183.895H160.42Z" fill="#B35C28"/>
<path d="M275.333 128.902C276.424 128.902 277.014 128.902 277.604 128.902C290.412 128.902 303.238 128.651 316.028 128.974C328.085 129.296 339.765 131.715 350.462 137.59C358.512 142.015 364.844 148.051 368.243 156.882C372.035 166.77 367.85 177.447 358.297 182.068C353.02 184.612 347.439 185.525 341.697 185.579C332.342 185.669 322.986 185.597 313.631 185.597C312.933 185.597 312.236 185.597 311.109 185.597C320.053 204.621 328.872 223.268 335.544 243.259C332.932 243.259 330.589 243.259 328.228 243.259C324.221 243.259 324.239 243.259 322.915 239.461C318.031 225.436 311.914 211.947 305.689 198.494C298.462 182.874 291.253 167.254 284.277 151.526C281.039 144.254 278.392 136.712 275.297 128.884L275.333 128.902ZM288.57 132.413C288.695 132.986 288.731 133.273 288.82 133.542C294.473 150.022 301.932 165.714 309.302 181.459C309.57 182.014 310.554 182.534 311.216 182.552C314.668 182.659 318.121 182.641 321.573 182.588C327.584 182.498 333.612 182.677 339.587 182.158C345.346 181.638 350.123 178.844 353.217 173.756C357.045 167.469 356.813 160.859 353.969 154.41C347.582 139.99 335.776 133.255 320.572 132.413C310.59 131.858 300.555 132.306 290.555 132.306C289.965 132.306 289.393 132.359 288.57 132.413Z" fill="#B35C28"/>
<path d="M194.443 261.495C193.745 261.495 193.066 261.495 192.386 261.495C179.578 261.495 166.77 261.495 153.962 261.495C151.512 261.495 151.512 261.495 151.905 263.859C154.105 276.828 154.857 289.923 154.07 303.017C152.621 327.468 144.983 349.967 131.567 370.495C130.851 371.588 130.064 372 128.794 371.982C125.95 371.91 123.088 371.964 119.975 371.964C121.048 370.119 122.05 368.453 123.016 366.769C131.763 351.669 137.309 335.475 140.153 318.261C142.353 304.934 142.46 291.571 141.459 278.172C141.083 273.138 140.26 268.14 139.706 263.125C139.527 261.53 138.507 261.495 137.291 261.495C123.767 261.495 110.244 261.495 96.7206 261.495C95.9693 261.495 95.2001 261.495 94.5025 261.495C93.787 258.521 94.8185 257.1 97.5971 257.231C98.4915 257.267 99.3859 257.267 100.28 257.267C130.368 257.267 160.456 257.267 190.543 257.267C194.21 257.267 194.228 257.303 194.443 261.495Z" fill="#B35C28"/>
</g>
<defs>
<clipPath id="clip0_559_151">
<rect width="579" height="372" fill="white"/>
</clipPath>
</defs>
</svg>
